G04 EAGLE Gerber RS-274X export*
G75*
%MOMM*%
%FSLAX34Y34*%
%LPD*%
%INTop Copper*%
%IPPOS*%
%AMOC8*
5,1,8,0,0,1.08239X$1,22.5*%
G01*
%ADD10R,1.100000X1.000000*%
%ADD11R,1.709600X1.709600*%
%ADD12C,1.709600*%
%ADD13R,1.651000X1.000000*%
%ADD14C,0.812800*%
%ADD15C,0.304800*%
%ADD16C,1.016000*%

G36*
X120291Y9844D02*
X120291Y9844D01*
X120367Y9842D01*
X120536Y9864D01*
X120707Y9878D01*
X120781Y9896D01*
X120856Y9906D01*
X121020Y9955D01*
X121186Y9996D01*
X121255Y10026D01*
X121329Y10048D01*
X121482Y10124D01*
X121639Y10191D01*
X121703Y10232D01*
X121772Y10265D01*
X121911Y10364D01*
X122055Y10456D01*
X122112Y10507D01*
X122174Y10551D01*
X122295Y10671D01*
X122423Y10785D01*
X122471Y10844D01*
X122525Y10898D01*
X122626Y11036D01*
X122733Y11169D01*
X122770Y11235D01*
X122815Y11296D01*
X122892Y11449D01*
X122977Y11597D01*
X123003Y11669D01*
X123038Y11737D01*
X123089Y11900D01*
X123148Y12060D01*
X123163Y12135D01*
X123186Y12207D01*
X123198Y12312D01*
X123243Y12544D01*
X123250Y12780D01*
X123262Y12885D01*
X123262Y18644D01*
X124456Y19838D01*
X231144Y19838D01*
X232338Y18644D01*
X232338Y12885D01*
X232344Y12809D01*
X232342Y12733D01*
X232364Y12564D01*
X232378Y12393D01*
X232396Y12319D01*
X232406Y12244D01*
X232455Y12080D01*
X232496Y11914D01*
X232526Y11845D01*
X232548Y11771D01*
X232624Y11618D01*
X232691Y11461D01*
X232732Y11397D01*
X232765Y11328D01*
X232864Y11189D01*
X232956Y11045D01*
X233007Y10988D01*
X233051Y10926D01*
X233171Y10805D01*
X233285Y10677D01*
X233344Y10629D01*
X233398Y10575D01*
X233536Y10474D01*
X233669Y10367D01*
X233735Y10330D01*
X233796Y10285D01*
X233949Y10208D01*
X234097Y10123D01*
X234169Y10097D01*
X234237Y10062D01*
X234400Y10011D01*
X234560Y9952D01*
X234635Y9937D01*
X234707Y9914D01*
X234812Y9902D01*
X235044Y9857D01*
X235280Y9850D01*
X235385Y9838D01*
X317800Y9838D01*
X317952Y9850D01*
X318039Y9847D01*
X321937Y10154D01*
X321954Y10157D01*
X321971Y10157D01*
X322031Y10169D01*
X322424Y10232D01*
X322558Y10277D01*
X322639Y10294D01*
X330053Y12702D01*
X330179Y12755D01*
X330309Y12799D01*
X330380Y12839D01*
X330508Y12892D01*
X330854Y13108D01*
X330902Y13135D01*
X337209Y17717D01*
X337313Y17806D01*
X337423Y17888D01*
X337478Y17948D01*
X337583Y18038D01*
X337845Y18350D01*
X337883Y18391D01*
X342465Y24698D01*
X342536Y24815D01*
X342616Y24926D01*
X342649Y25001D01*
X342721Y25119D01*
X342874Y25496D01*
X342898Y25547D01*
X345306Y32961D01*
X345310Y32978D01*
X345317Y32994D01*
X345329Y33054D01*
X345420Y33441D01*
X345430Y33582D01*
X345446Y33663D01*
X345753Y37561D01*
X345752Y37713D01*
X345762Y37800D01*
X345762Y122715D01*
X345756Y122791D01*
X345758Y122867D01*
X345736Y123036D01*
X345722Y123207D01*
X345704Y123281D01*
X345694Y123356D01*
X345645Y123520D01*
X345604Y123686D01*
X345574Y123755D01*
X345552Y123829D01*
X345476Y123982D01*
X345409Y124139D01*
X345368Y124203D01*
X345335Y124272D01*
X345236Y124411D01*
X345144Y124555D01*
X345093Y124612D01*
X345049Y124674D01*
X344929Y124795D01*
X344815Y124923D01*
X344756Y124971D01*
X344702Y125025D01*
X344564Y125126D01*
X344431Y125233D01*
X344365Y125270D01*
X344304Y125315D01*
X344151Y125392D01*
X344003Y125477D01*
X343931Y125503D01*
X343863Y125538D01*
X343700Y125589D01*
X343540Y125648D01*
X343465Y125663D01*
X343393Y125686D01*
X343288Y125698D01*
X343056Y125743D01*
X342820Y125750D01*
X342715Y125762D01*
X336956Y125762D01*
X335762Y126956D01*
X335762Y228644D01*
X336956Y229838D01*
X342715Y229838D01*
X342791Y229844D01*
X342867Y229842D01*
X343036Y229864D01*
X343207Y229878D01*
X343281Y229896D01*
X343356Y229906D01*
X343520Y229955D01*
X343686Y229996D01*
X343755Y230026D01*
X343829Y230048D01*
X343982Y230124D01*
X344139Y230191D01*
X344203Y230232D01*
X344272Y230265D01*
X344411Y230364D01*
X344555Y230456D01*
X344612Y230507D01*
X344674Y230551D01*
X344795Y230671D01*
X344923Y230785D01*
X344971Y230844D01*
X345025Y230898D01*
X345126Y231036D01*
X345233Y231169D01*
X345270Y231235D01*
X345315Y231296D01*
X345392Y231449D01*
X345477Y231597D01*
X345503Y231669D01*
X345538Y231737D01*
X345589Y231900D01*
X345648Y232060D01*
X345663Y232135D01*
X345686Y232207D01*
X345698Y232312D01*
X345743Y232544D01*
X345750Y232780D01*
X345762Y232885D01*
X345762Y317800D01*
X345750Y317952D01*
X345753Y318039D01*
X345446Y321937D01*
X345443Y321954D01*
X345443Y321971D01*
X345431Y322031D01*
X345368Y322424D01*
X345323Y322558D01*
X345306Y322639D01*
X342898Y330053D01*
X342845Y330179D01*
X342801Y330309D01*
X342761Y330380D01*
X342708Y330508D01*
X342492Y330854D01*
X342465Y330902D01*
X337883Y337209D01*
X337794Y337313D01*
X337712Y337423D01*
X337652Y337478D01*
X337562Y337583D01*
X337250Y337845D01*
X337209Y337883D01*
X330902Y342465D01*
X330785Y342536D01*
X330674Y342616D01*
X330599Y342649D01*
X330481Y342721D01*
X330104Y342874D01*
X330053Y342898D01*
X322639Y345306D01*
X322622Y345310D01*
X322606Y345317D01*
X322546Y345329D01*
X322159Y345420D01*
X322018Y345430D01*
X321937Y345446D01*
X318039Y345753D01*
X317887Y345752D01*
X317800Y345762D01*
X235385Y345762D01*
X235309Y345756D01*
X235233Y345758D01*
X235064Y345736D01*
X234893Y345722D01*
X234819Y345704D01*
X234744Y345694D01*
X234580Y345645D01*
X234414Y345604D01*
X234345Y345574D01*
X234271Y345552D01*
X234118Y345476D01*
X233961Y345409D01*
X233897Y345368D01*
X233828Y345335D01*
X233689Y345236D01*
X233545Y345144D01*
X233488Y345093D01*
X233426Y345049D01*
X233305Y344929D01*
X233177Y344815D01*
X233129Y344756D01*
X233075Y344702D01*
X232974Y344564D01*
X232867Y344431D01*
X232830Y344365D01*
X232785Y344304D01*
X232708Y344151D01*
X232623Y344003D01*
X232597Y343931D01*
X232562Y343863D01*
X232511Y343700D01*
X232452Y343540D01*
X232437Y343465D01*
X232414Y343393D01*
X232402Y343288D01*
X232357Y343056D01*
X232350Y342820D01*
X232338Y342715D01*
X232338Y336956D01*
X231144Y335762D01*
X124456Y335762D01*
X123262Y336956D01*
X123262Y342715D01*
X123256Y342791D01*
X123258Y342867D01*
X123236Y343036D01*
X123222Y343207D01*
X123204Y343281D01*
X123194Y343356D01*
X123145Y343520D01*
X123104Y343686D01*
X123074Y343755D01*
X123052Y343829D01*
X122976Y343982D01*
X122909Y344139D01*
X122868Y344203D01*
X122835Y344272D01*
X122736Y344411D01*
X122644Y344555D01*
X122593Y344612D01*
X122549Y344674D01*
X122429Y344795D01*
X122315Y344923D01*
X122256Y344971D01*
X122202Y345025D01*
X122064Y345126D01*
X121931Y345233D01*
X121865Y345270D01*
X121804Y345315D01*
X121651Y345392D01*
X121503Y345477D01*
X121431Y345503D01*
X121363Y345538D01*
X121200Y345589D01*
X121040Y345648D01*
X120965Y345663D01*
X120893Y345686D01*
X120788Y345698D01*
X120556Y345743D01*
X120320Y345750D01*
X120215Y345762D01*
X37800Y345762D01*
X37648Y345750D01*
X37561Y345753D01*
X33663Y345446D01*
X33646Y345443D01*
X33629Y345443D01*
X33569Y345431D01*
X33176Y345368D01*
X33042Y345323D01*
X32961Y345306D01*
X25547Y342898D01*
X25421Y342845D01*
X25291Y342801D01*
X25220Y342761D01*
X25092Y342708D01*
X24746Y342492D01*
X24698Y342465D01*
X18391Y337883D01*
X18287Y337794D01*
X18177Y337712D01*
X18122Y337652D01*
X18017Y337562D01*
X17755Y337250D01*
X17717Y337209D01*
X13135Y330902D01*
X13064Y330785D01*
X12984Y330674D01*
X12951Y330599D01*
X12879Y330481D01*
X12726Y330104D01*
X12702Y330053D01*
X10294Y322639D01*
X10290Y322622D01*
X10283Y322606D01*
X10271Y322546D01*
X10180Y322159D01*
X10170Y322018D01*
X10154Y321937D01*
X9847Y318039D01*
X9848Y317887D01*
X9838Y317800D01*
X9838Y37800D01*
X9850Y37648D01*
X9847Y37561D01*
X10154Y33663D01*
X10157Y33646D01*
X10157Y33629D01*
X10169Y33569D01*
X10232Y33176D01*
X10277Y33042D01*
X10294Y32961D01*
X12702Y25547D01*
X12755Y25421D01*
X12799Y25291D01*
X12839Y25220D01*
X12892Y25092D01*
X13108Y24746D01*
X13135Y24698D01*
X17717Y18391D01*
X17806Y18287D01*
X17888Y18177D01*
X17948Y18122D01*
X18038Y18017D01*
X18350Y17755D01*
X18391Y17717D01*
X24698Y13135D01*
X24815Y13064D01*
X24926Y12984D01*
X25001Y12951D01*
X25119Y12879D01*
X25496Y12726D01*
X25547Y12702D01*
X32961Y10294D01*
X32978Y10290D01*
X32994Y10283D01*
X33054Y10271D01*
X33441Y10180D01*
X33582Y10170D01*
X33663Y10154D01*
X37561Y9847D01*
X37713Y9848D01*
X37800Y9838D01*
X120215Y9838D01*
X120291Y9844D01*
G37*
%LPC*%
G36*
X96266Y85089D02*
X96266Y85089D01*
X85177Y85089D01*
X85177Y90925D01*
X85350Y91571D01*
X85685Y92150D01*
X86158Y92623D01*
X86737Y92958D01*
X87383Y93131D01*
X87857Y93131D01*
X87895Y93134D01*
X87933Y93132D01*
X88141Y93154D01*
X88349Y93171D01*
X88386Y93180D01*
X88424Y93184D01*
X88625Y93239D01*
X88828Y93289D01*
X88863Y93304D01*
X88900Y93315D01*
X89089Y93402D01*
X89281Y93484D01*
X89313Y93504D01*
X89348Y93520D01*
X89521Y93637D01*
X89697Y93749D01*
X89726Y93774D01*
X89757Y93796D01*
X89909Y93939D01*
X90065Y94078D01*
X90089Y94107D01*
X90117Y94133D01*
X90244Y94300D01*
X90375Y94462D01*
X90394Y94494D01*
X90417Y94525D01*
X90516Y94709D01*
X90619Y94890D01*
X90632Y94926D01*
X90650Y94960D01*
X90718Y95157D01*
X90791Y95353D01*
X90798Y95390D01*
X90810Y95426D01*
X90845Y95633D01*
X90885Y95837D01*
X90886Y95875D01*
X90893Y95913D01*
X90894Y96122D01*
X90901Y96330D01*
X90896Y96368D01*
X90896Y96406D01*
X90863Y96613D01*
X90836Y96819D01*
X90825Y96856D01*
X90819Y96893D01*
X90754Y97092D01*
X90694Y97291D01*
X90677Y97326D01*
X90665Y97362D01*
X90568Y97547D01*
X90477Y97735D01*
X90455Y97766D01*
X90437Y97800D01*
X90379Y97872D01*
X90191Y98137D01*
X90071Y98259D01*
X90012Y98333D01*
X87296Y101049D01*
X85685Y104937D01*
X85685Y109147D01*
X87296Y113036D01*
X90272Y116012D01*
X91998Y116727D01*
X92032Y116744D01*
X92068Y116757D01*
X92161Y116807D01*
X92248Y116845D01*
X92330Y116897D01*
X92437Y116952D01*
X92468Y116974D01*
X92501Y116993D01*
X92596Y117067D01*
X92664Y117110D01*
X92726Y117165D01*
X92834Y117245D01*
X92861Y117272D01*
X92891Y117295D01*
X92982Y117394D01*
X93032Y117438D01*
X93075Y117492D01*
X93179Y117598D01*
X93200Y117629D01*
X93226Y117657D01*
X93308Y117780D01*
X93342Y117822D01*
X93370Y117871D01*
X93462Y118002D01*
X93478Y118036D01*
X93499Y118068D01*
X93565Y118214D01*
X93586Y118251D01*
X93601Y118292D01*
X93676Y118446D01*
X93686Y118483D01*
X93702Y118518D01*
X93746Y118683D01*
X93758Y118714D01*
X93764Y118747D01*
X93815Y118920D01*
X93820Y118958D01*
X93830Y118994D01*
X93848Y119174D01*
X93852Y119198D01*
X93853Y119223D01*
X93876Y119409D01*
X93875Y119447D01*
X93879Y119485D01*
X93867Y119672D01*
X93868Y119691D01*
X93865Y119710D01*
X93858Y119902D01*
X93850Y119940D01*
X93848Y119978D01*
X93805Y120165D01*
X93803Y120180D01*
X93799Y120195D01*
X93760Y120386D01*
X93747Y120421D01*
X93738Y120459D01*
X93665Y120639D01*
X93661Y120652D01*
X93655Y120665D01*
X93586Y120847D01*
X93567Y120880D01*
X93552Y120915D01*
X93450Y121082D01*
X93444Y121095D01*
X93436Y121107D01*
X93339Y121274D01*
X93315Y121304D01*
X93295Y121336D01*
X93169Y121483D01*
X93158Y121498D01*
X93146Y121510D01*
X93027Y121656D01*
X92998Y121681D01*
X92973Y121710D01*
X92829Y121832D01*
X92812Y121849D01*
X92793Y121862D01*
X92657Y121983D01*
X92624Y122003D01*
X92595Y122027D01*
X92514Y122072D01*
X92446Y122115D01*
X92413Y122139D01*
X92386Y122153D01*
X92239Y122245D01*
X92080Y122312D01*
X91998Y122357D01*
X90272Y123072D01*
X87296Y126048D01*
X85685Y129937D01*
X85685Y134147D01*
X87296Y138036D01*
X90272Y141012D01*
X90305Y141026D01*
X90314Y141030D01*
X90323Y141033D01*
X90534Y141143D01*
X90744Y141251D01*
X90752Y141256D01*
X90761Y141261D01*
X90792Y141286D01*
X91141Y141544D01*
X91233Y141637D01*
X91294Y141686D01*
X93241Y143633D01*
X140850Y191242D01*
X140924Y191329D01*
X141005Y191409D01*
X141083Y191516D01*
X141169Y191618D01*
X141228Y191716D01*
X141295Y191808D01*
X141355Y191926D01*
X141424Y192040D01*
X141466Y192147D01*
X141518Y192248D01*
X141558Y192375D01*
X141607Y192498D01*
X141632Y192610D01*
X141666Y192719D01*
X141676Y192812D01*
X141714Y192980D01*
X141732Y193304D01*
X141742Y193397D01*
X141742Y199642D01*
X142933Y200833D01*
X149178Y200833D01*
X149292Y200842D01*
X149406Y200841D01*
X149538Y200862D01*
X149670Y200873D01*
X149781Y200900D01*
X149894Y200918D01*
X150020Y200959D01*
X150149Y200991D01*
X150254Y201036D01*
X150362Y201072D01*
X150480Y201134D01*
X150602Y201186D01*
X150699Y201247D01*
X150800Y201300D01*
X150874Y201359D01*
X151018Y201451D01*
X151261Y201667D01*
X151333Y201725D01*
X162311Y212703D01*
X162385Y212790D01*
X162466Y212870D01*
X162544Y212977D01*
X162630Y213079D01*
X162689Y213177D01*
X162756Y213269D01*
X162816Y213387D01*
X162885Y213501D01*
X162927Y213608D01*
X162979Y213709D01*
X163019Y213836D01*
X163068Y213959D01*
X163093Y214071D01*
X163127Y214180D01*
X163137Y214273D01*
X163175Y214441D01*
X163193Y214765D01*
X163203Y214858D01*
X163203Y220060D01*
X163194Y220173D01*
X163195Y220288D01*
X163174Y220419D01*
X163163Y220552D01*
X163136Y220662D01*
X163118Y220775D01*
X163077Y220901D01*
X163045Y221030D01*
X163000Y221135D01*
X162964Y221244D01*
X162902Y221362D01*
X162850Y221484D01*
X162789Y221580D01*
X162736Y221681D01*
X162677Y221755D01*
X162585Y221900D01*
X162480Y222017D01*
X162452Y222057D01*
X162375Y222135D01*
X162369Y222142D01*
X162311Y222215D01*
X161767Y222758D01*
X161767Y234442D01*
X162958Y235633D01*
X175710Y235633D01*
X175828Y235562D01*
X175970Y235466D01*
X176039Y235434D01*
X176104Y235395D01*
X176262Y235332D01*
X176418Y235261D01*
X176491Y235240D01*
X176562Y235212D01*
X176729Y235175D01*
X176894Y235130D01*
X176969Y235122D01*
X177043Y235105D01*
X177215Y235096D01*
X177384Y235078D01*
X177460Y235082D01*
X177536Y235078D01*
X177706Y235096D01*
X177877Y235106D01*
X177951Y235122D01*
X178027Y235130D01*
X178192Y235175D01*
X178359Y235212D01*
X178413Y235236D01*
X178502Y235261D01*
X178951Y235466D01*
X178969Y235479D01*
X178984Y235485D01*
X179819Y235968D01*
X180465Y236141D01*
X183253Y236141D01*
X183253Y228600D01*
X183253Y221059D01*
X180465Y221059D01*
X179777Y221244D01*
X179732Y221270D01*
X179625Y221309D01*
X179522Y221358D01*
X179394Y221395D01*
X179269Y221441D01*
X179157Y221463D01*
X179048Y221495D01*
X178916Y221510D01*
X178785Y221536D01*
X178671Y221539D01*
X178558Y221553D01*
X178425Y221547D01*
X178292Y221551D01*
X178179Y221536D01*
X178065Y221531D01*
X177935Y221504D01*
X177803Y221487D01*
X177694Y221454D01*
X177582Y221431D01*
X177458Y221383D01*
X177330Y221344D01*
X177228Y221294D01*
X177122Y221253D01*
X177007Y221186D01*
X176887Y221127D01*
X176795Y221062D01*
X176696Y221004D01*
X176594Y220919D01*
X176485Y220842D01*
X176404Y220762D01*
X176316Y220689D01*
X176229Y220589D01*
X176134Y220495D01*
X176067Y220403D01*
X175992Y220318D01*
X175922Y220204D01*
X175844Y220097D01*
X175792Y219995D01*
X175732Y219898D01*
X175681Y219775D01*
X175621Y219656D01*
X175587Y219547D01*
X175544Y219442D01*
X175513Y219313D01*
X175473Y219186D01*
X175464Y219102D01*
X175431Y218962D01*
X175404Y218573D01*
X175397Y218508D01*
X175397Y209857D01*
X174469Y207616D01*
X163210Y196358D01*
X163136Y196271D01*
X163055Y196191D01*
X162977Y196084D01*
X162891Y195982D01*
X162832Y195884D01*
X162765Y195792D01*
X162705Y195674D01*
X162636Y195560D01*
X162594Y195453D01*
X162542Y195352D01*
X162502Y195225D01*
X162453Y195102D01*
X162428Y194990D01*
X162394Y194881D01*
X162384Y194788D01*
X162346Y194620D01*
X162328Y194296D01*
X162318Y194203D01*
X162318Y187958D01*
X161127Y186767D01*
X154882Y186767D01*
X154768Y186758D01*
X154654Y186759D01*
X154522Y186738D01*
X154390Y186727D01*
X154279Y186700D01*
X154166Y186682D01*
X154040Y186641D01*
X153911Y186609D01*
X153806Y186564D01*
X153698Y186528D01*
X153580Y186466D01*
X153458Y186414D01*
X153361Y186353D01*
X153260Y186300D01*
X153186Y186241D01*
X153042Y186149D01*
X152799Y185933D01*
X152727Y185875D01*
X140887Y174035D01*
X140862Y174006D01*
X140834Y173980D01*
X140703Y173818D01*
X140567Y173659D01*
X140548Y173626D01*
X140524Y173596D01*
X140421Y173416D01*
X140313Y173236D01*
X140299Y173201D01*
X140280Y173168D01*
X140207Y172972D01*
X140130Y172778D01*
X140121Y172741D01*
X140108Y172705D01*
X140068Y172500D01*
X140023Y172296D01*
X140021Y172258D01*
X140013Y172221D01*
X140007Y172013D01*
X139995Y171804D01*
X139999Y171766D01*
X139998Y171728D01*
X140025Y171521D01*
X140047Y171313D01*
X140057Y171277D01*
X140062Y171239D01*
X140123Y171039D01*
X140178Y170838D01*
X140194Y170803D01*
X140205Y170766D01*
X140297Y170579D01*
X140384Y170389D01*
X140405Y170357D01*
X140422Y170323D01*
X140542Y170154D01*
X140659Y169980D01*
X140685Y169952D01*
X140707Y169921D01*
X140854Y169773D01*
X140997Y169620D01*
X141027Y169597D01*
X141054Y169570D01*
X141223Y169447D01*
X141388Y169320D01*
X141422Y169302D01*
X141453Y169280D01*
X141639Y169186D01*
X141823Y169087D01*
X141859Y169074D01*
X141893Y169057D01*
X142092Y168995D01*
X142290Y168927D01*
X142327Y168921D01*
X142364Y168909D01*
X142456Y168899D01*
X142776Y168844D01*
X142948Y168843D01*
X143042Y168833D01*
X161127Y168833D01*
X162318Y167642D01*
X162318Y155958D01*
X161127Y154767D01*
X151289Y154767D01*
X151176Y154758D01*
X151061Y154759D01*
X150930Y154738D01*
X150798Y154727D01*
X150687Y154700D01*
X150574Y154682D01*
X150448Y154641D01*
X150319Y154609D01*
X150214Y154564D01*
X150105Y154528D01*
X149988Y154466D01*
X149866Y154414D01*
X149769Y154353D01*
X149668Y154300D01*
X149594Y154241D01*
X149449Y154149D01*
X149207Y153933D01*
X149135Y153875D01*
X107572Y112312D01*
X107431Y112146D01*
X107286Y111982D01*
X107271Y111958D01*
X107252Y111936D01*
X107139Y111748D01*
X107023Y111564D01*
X107012Y111538D01*
X106998Y111513D01*
X106917Y111311D01*
X106832Y111109D01*
X106825Y111081D01*
X106815Y111055D01*
X106767Y110842D01*
X106716Y110630D01*
X106714Y110601D01*
X106708Y110574D01*
X106696Y110355D01*
X106679Y110138D01*
X106682Y110109D01*
X106680Y110081D01*
X106703Y109864D01*
X106722Y109646D01*
X106729Y109624D01*
X106732Y109590D01*
X106847Y109174D01*
X106847Y104937D01*
X105236Y101049D01*
X102520Y98333D01*
X102495Y98304D01*
X102467Y98278D01*
X102336Y98116D01*
X102201Y97957D01*
X102181Y97924D01*
X102157Y97894D01*
X102054Y97713D01*
X101946Y97534D01*
X101932Y97499D01*
X101913Y97466D01*
X101840Y97270D01*
X101763Y97076D01*
X101755Y97039D01*
X101741Y97003D01*
X101701Y96798D01*
X101656Y96594D01*
X101654Y96556D01*
X101647Y96519D01*
X101640Y96311D01*
X101629Y96102D01*
X101633Y96064D01*
X101631Y96026D01*
X101659Y95819D01*
X101681Y95611D01*
X101691Y95575D01*
X101696Y95537D01*
X101756Y95337D01*
X101811Y95136D01*
X101827Y95101D01*
X101838Y95064D01*
X101930Y94877D01*
X102017Y94687D01*
X102038Y94656D01*
X102055Y94621D01*
X102176Y94451D01*
X102292Y94278D01*
X102319Y94250D01*
X102341Y94219D01*
X102487Y94070D01*
X102630Y93918D01*
X102660Y93895D01*
X102687Y93868D01*
X102856Y93745D01*
X103022Y93618D01*
X103055Y93600D01*
X103086Y93578D01*
X103272Y93484D01*
X103456Y93385D01*
X103493Y93372D01*
X103527Y93355D01*
X103725Y93293D01*
X103923Y93225D01*
X103961Y93219D01*
X103997Y93207D01*
X104089Y93197D01*
X104409Y93142D01*
X104582Y93141D01*
X104675Y93131D01*
X105149Y93131D01*
X105795Y92958D01*
X106374Y92623D01*
X106847Y92150D01*
X107182Y91571D01*
X107355Y90925D01*
X107355Y85089D01*
X96266Y85089D01*
X96266Y85089D01*
G37*
%LPD*%
%LPC*%
G36*
X185275Y100837D02*
X185275Y100837D01*
X182661Y101920D01*
X180660Y103921D01*
X179577Y106535D01*
X179577Y109365D01*
X180660Y111979D01*
X182241Y113560D01*
X182315Y113647D01*
X182396Y113727D01*
X182474Y113834D01*
X182560Y113936D01*
X182619Y114034D01*
X182686Y114126D01*
X182746Y114244D01*
X182815Y114358D01*
X182857Y114464D01*
X182909Y114566D01*
X182949Y114693D01*
X182998Y114816D01*
X183023Y114928D01*
X183057Y115037D01*
X183067Y115130D01*
X183105Y115298D01*
X183123Y115622D01*
X183133Y115714D01*
X183133Y177627D01*
X183675Y178935D01*
X192390Y187650D01*
X192464Y187737D01*
X192545Y187817D01*
X192623Y187924D01*
X192709Y188026D01*
X192768Y188124D01*
X192835Y188216D01*
X192895Y188334D01*
X192964Y188448D01*
X193006Y188554D01*
X193058Y188656D01*
X193098Y188783D01*
X193147Y188906D01*
X193172Y189018D01*
X193206Y189127D01*
X193216Y189220D01*
X193254Y189388D01*
X193272Y189712D01*
X193282Y189804D01*
X193282Y199642D01*
X194473Y200833D01*
X212667Y200833D01*
X213858Y199642D01*
X213858Y187958D01*
X212667Y186767D01*
X202829Y186767D01*
X202716Y186758D01*
X202601Y186759D01*
X202470Y186738D01*
X202338Y186727D01*
X202227Y186700D01*
X202114Y186682D01*
X201988Y186641D01*
X201859Y186609D01*
X201754Y186564D01*
X201645Y186528D01*
X201528Y186466D01*
X201406Y186414D01*
X201309Y186353D01*
X201208Y186300D01*
X201134Y186241D01*
X200989Y186149D01*
X200747Y185933D01*
X200675Y185875D01*
X191139Y176339D01*
X191065Y176252D01*
X190984Y176172D01*
X190906Y176065D01*
X190820Y175963D01*
X190761Y175865D01*
X190694Y175773D01*
X190634Y175655D01*
X190565Y175541D01*
X190523Y175435D01*
X190471Y175333D01*
X190431Y175206D01*
X190382Y175083D01*
X190357Y174971D01*
X190323Y174862D01*
X190313Y174769D01*
X190275Y174601D01*
X190257Y174277D01*
X190247Y174185D01*
X190247Y172044D01*
X190265Y171818D01*
X190281Y171589D01*
X190285Y171571D01*
X190287Y171552D01*
X190341Y171332D01*
X190394Y171109D01*
X190401Y171091D01*
X190405Y171073D01*
X190495Y170864D01*
X190582Y170653D01*
X190592Y170637D01*
X190600Y170620D01*
X190722Y170427D01*
X190842Y170234D01*
X190855Y170220D01*
X190865Y170204D01*
X191017Y170034D01*
X191167Y169862D01*
X191181Y169850D01*
X191194Y169836D01*
X191371Y169693D01*
X191546Y169547D01*
X191563Y169538D01*
X191578Y169526D01*
X191775Y169413D01*
X191972Y169298D01*
X191990Y169291D01*
X192006Y169282D01*
X192220Y169202D01*
X192433Y169121D01*
X192451Y169117D01*
X192469Y169110D01*
X192692Y169066D01*
X192915Y169020D01*
X192935Y169019D01*
X192953Y169015D01*
X193180Y169008D01*
X193408Y168998D01*
X193424Y169001D01*
X193446Y169000D01*
X193935Y169065D01*
X194024Y169091D01*
X194083Y169100D01*
X194981Y169341D01*
X200523Y169341D01*
X200523Y161800D01*
X200523Y154259D01*
X194981Y154259D01*
X194083Y154500D01*
X193858Y154541D01*
X193635Y154585D01*
X193616Y154585D01*
X193597Y154589D01*
X193368Y154593D01*
X193142Y154600D01*
X193123Y154597D01*
X193104Y154598D01*
X192878Y154565D01*
X192653Y154535D01*
X192635Y154530D01*
X192616Y154527D01*
X192400Y154459D01*
X192180Y154393D01*
X192163Y154385D01*
X192145Y154379D01*
X191942Y154276D01*
X191737Y154176D01*
X191722Y154165D01*
X191705Y154157D01*
X191520Y154022D01*
X191335Y153891D01*
X191322Y153877D01*
X191306Y153866D01*
X191146Y153704D01*
X190984Y153544D01*
X190973Y153529D01*
X190960Y153515D01*
X190827Y153329D01*
X190694Y153145D01*
X190685Y153128D01*
X190674Y153113D01*
X190573Y152907D01*
X190471Y152705D01*
X190466Y152687D01*
X190457Y152670D01*
X190392Y152451D01*
X190323Y152234D01*
X190321Y152219D01*
X190315Y152197D01*
X190251Y151708D01*
X190253Y151616D01*
X190247Y151556D01*
X190247Y115714D01*
X190256Y115601D01*
X190255Y115486D01*
X190276Y115355D01*
X190287Y115223D01*
X190314Y115112D01*
X190332Y114999D01*
X190373Y114873D01*
X190405Y114744D01*
X190450Y114639D01*
X190486Y114530D01*
X190548Y114413D01*
X190600Y114290D01*
X190661Y114194D01*
X190714Y114093D01*
X190773Y114019D01*
X190865Y113874D01*
X191081Y113632D01*
X191139Y113560D01*
X192720Y111979D01*
X193803Y109365D01*
X193803Y106535D01*
X192720Y103921D01*
X190719Y101920D01*
X188105Y100837D01*
X185275Y100837D01*
G37*
%LPD*%
%LPC*%
G36*
X304546Y85127D02*
X304546Y85127D01*
X293877Y85127D01*
X294270Y86336D01*
X295062Y87892D01*
X296088Y89304D01*
X297322Y90538D01*
X298734Y91564D01*
X299850Y92132D01*
X299991Y92219D01*
X300136Y92298D01*
X300200Y92348D01*
X300270Y92391D01*
X300395Y92499D01*
X300525Y92601D01*
X300581Y92661D01*
X300642Y92714D01*
X300748Y92841D01*
X300861Y92963D01*
X300906Y93031D01*
X300958Y93093D01*
X301042Y93236D01*
X301133Y93374D01*
X301167Y93448D01*
X301209Y93519D01*
X301268Y93673D01*
X301336Y93823D01*
X301357Y93902D01*
X301387Y93978D01*
X301421Y94141D01*
X301464Y94300D01*
X301472Y94381D01*
X301489Y94461D01*
X301497Y94626D01*
X301513Y94791D01*
X301508Y94872D01*
X301512Y94954D01*
X301493Y95118D01*
X301482Y95283D01*
X301464Y95363D01*
X301455Y95444D01*
X301409Y95603D01*
X301372Y95764D01*
X301342Y95840D01*
X301319Y95918D01*
X301249Y96068D01*
X301187Y96221D01*
X301144Y96291D01*
X301109Y96365D01*
X301016Y96501D01*
X300929Y96642D01*
X300876Y96704D01*
X300830Y96771D01*
X300715Y96891D01*
X300607Y97016D01*
X300545Y97068D01*
X300488Y97127D01*
X300356Y97227D01*
X300229Y97333D01*
X300174Y97364D01*
X300094Y97424D01*
X299657Y97653D01*
X299642Y97657D01*
X299632Y97663D01*
X298552Y98110D01*
X295576Y101086D01*
X293965Y104975D01*
X293965Y109185D01*
X295576Y113073D01*
X298800Y116297D01*
X298825Y116326D01*
X298853Y116352D01*
X298984Y116514D01*
X299119Y116673D01*
X299139Y116706D01*
X299163Y116736D01*
X299266Y116917D01*
X299374Y117096D01*
X299388Y117131D01*
X299407Y117164D01*
X299480Y117360D01*
X299557Y117554D01*
X299565Y117591D01*
X299579Y117627D01*
X299619Y117832D01*
X299664Y118036D01*
X299666Y118074D01*
X299673Y118111D01*
X299680Y118319D01*
X299691Y118528D01*
X299687Y118566D01*
X299689Y118604D01*
X299661Y118811D01*
X299639Y119019D01*
X299629Y119055D01*
X299624Y119093D01*
X299564Y119293D01*
X299509Y119494D01*
X299493Y119529D01*
X299482Y119566D01*
X299390Y119753D01*
X299303Y119943D01*
X299282Y119974D01*
X299265Y120009D01*
X299144Y120179D01*
X299028Y120352D01*
X299001Y120380D01*
X298979Y120411D01*
X298833Y120559D01*
X298690Y120712D01*
X298659Y120735D01*
X298633Y120762D01*
X298464Y120885D01*
X298298Y121012D01*
X298265Y121030D01*
X298234Y121052D01*
X298048Y121146D01*
X297864Y121245D01*
X297827Y121258D01*
X297793Y121275D01*
X297595Y121337D01*
X297397Y121405D01*
X297359Y121411D01*
X297323Y121423D01*
X297231Y121433D01*
X296910Y121488D01*
X296738Y121489D01*
X296645Y121499D01*
X295156Y121499D01*
X293965Y122690D01*
X293965Y141470D01*
X295156Y142661D01*
X313936Y142661D01*
X315127Y141470D01*
X315127Y122690D01*
X313936Y121499D01*
X312447Y121499D01*
X312409Y121496D01*
X312371Y121498D01*
X312163Y121476D01*
X311955Y121459D01*
X311918Y121450D01*
X311880Y121446D01*
X311679Y121391D01*
X311476Y121341D01*
X311441Y121326D01*
X311404Y121315D01*
X311215Y121228D01*
X311023Y121146D01*
X310991Y121126D01*
X310956Y121110D01*
X310783Y120993D01*
X310607Y120881D01*
X310578Y120856D01*
X310547Y120834D01*
X310395Y120691D01*
X310239Y120552D01*
X310215Y120523D01*
X310187Y120497D01*
X310060Y120330D01*
X309929Y120168D01*
X309910Y120136D01*
X309887Y120105D01*
X309788Y119921D01*
X309685Y119740D01*
X309672Y119704D01*
X309654Y119670D01*
X309586Y119473D01*
X309513Y119277D01*
X309506Y119240D01*
X309494Y119204D01*
X309459Y118997D01*
X309419Y118793D01*
X309418Y118755D01*
X309411Y118717D01*
X309410Y118508D01*
X309403Y118300D01*
X309408Y118262D01*
X309408Y118224D01*
X309441Y118017D01*
X309468Y117811D01*
X309479Y117774D01*
X309485Y117737D01*
X309550Y117538D01*
X309610Y117339D01*
X309627Y117304D01*
X309639Y117268D01*
X309736Y117083D01*
X309827Y116895D01*
X309849Y116864D01*
X309867Y116830D01*
X309925Y116758D01*
X310113Y116493D01*
X310233Y116371D01*
X310292Y116297D01*
X313516Y113073D01*
X315127Y109185D01*
X315127Y104975D01*
X313516Y101086D01*
X310540Y98110D01*
X309460Y97663D01*
X309313Y97587D01*
X309162Y97520D01*
X309093Y97475D01*
X309021Y97438D01*
X308888Y97340D01*
X308749Y97249D01*
X308689Y97193D01*
X308624Y97145D01*
X308508Y97026D01*
X308387Y96914D01*
X308336Y96850D01*
X308279Y96792D01*
X308184Y96656D01*
X308082Y96526D01*
X308043Y96454D01*
X307996Y96387D01*
X307924Y96238D01*
X307845Y96094D01*
X307818Y96017D01*
X307782Y95943D01*
X307735Y95784D01*
X307680Y95629D01*
X307666Y95548D01*
X307643Y95470D01*
X307622Y95306D01*
X307593Y95143D01*
X307591Y95061D01*
X307581Y94980D01*
X307587Y94815D01*
X307585Y94650D01*
X307597Y94569D01*
X307600Y94487D01*
X307632Y94326D01*
X307657Y94162D01*
X307681Y94084D01*
X307698Y94004D01*
X307756Y93849D01*
X307806Y93692D01*
X307843Y93619D01*
X307872Y93542D01*
X307955Y93399D01*
X308030Y93252D01*
X308078Y93186D01*
X308119Y93115D01*
X308223Y92987D01*
X308321Y92854D01*
X308379Y92796D01*
X308431Y92733D01*
X308555Y92624D01*
X308673Y92508D01*
X308726Y92473D01*
X308801Y92407D01*
X309219Y92144D01*
X309233Y92138D01*
X309242Y92132D01*
X310358Y91564D01*
X311770Y90538D01*
X313004Y89304D01*
X314030Y87892D01*
X314822Y86336D01*
X315215Y85127D01*
X304546Y85127D01*
X304546Y85127D01*
G37*
%LPD*%
%LPC*%
G36*
X98032Y230227D02*
X98032Y230227D01*
X92735Y233883D01*
X89744Y239582D01*
X89744Y246018D01*
X92735Y251717D01*
X98032Y255373D01*
X104421Y256148D01*
X110439Y253866D01*
X114706Y249049D01*
X116247Y242800D01*
X114706Y236551D01*
X110439Y231734D01*
X104421Y229452D01*
X98032Y230227D01*
G37*
%LPD*%
%LPC*%
G36*
X248032Y230227D02*
X248032Y230227D01*
X242735Y233883D01*
X239744Y239582D01*
X239744Y246018D01*
X242735Y251717D01*
X248032Y255373D01*
X254421Y256148D01*
X260439Y253866D01*
X264706Y249049D01*
X266247Y242800D01*
X264706Y236551D01*
X260439Y231734D01*
X254421Y229452D01*
X248032Y230227D01*
G37*
%LPD*%
%LPC*%
G36*
X99313Y70953D02*
X99313Y70953D01*
X99313Y78995D01*
X107355Y78995D01*
X107355Y73159D01*
X107182Y72513D01*
X106847Y71934D01*
X106374Y71461D01*
X105795Y71126D01*
X105149Y70953D01*
X99313Y70953D01*
G37*
%LPD*%
%LPC*%
G36*
X87383Y70953D02*
X87383Y70953D01*
X86737Y71126D01*
X86158Y71461D01*
X85685Y71934D01*
X85350Y72513D01*
X85177Y73159D01*
X85177Y78995D01*
X93219Y78995D01*
X93219Y70953D01*
X87383Y70953D01*
G37*
%LPD*%
%LPC*%
G36*
X307593Y79033D02*
X307593Y79033D01*
X315215Y79033D01*
X314822Y77824D01*
X314030Y76268D01*
X313004Y74856D01*
X311770Y73622D01*
X310358Y72596D01*
X308802Y71804D01*
X307593Y71411D01*
X307593Y79033D01*
G37*
%LPD*%
%LPC*%
G36*
X300290Y71804D02*
X300290Y71804D01*
X298734Y72596D01*
X297322Y73622D01*
X296088Y74856D01*
X295062Y76268D01*
X294270Y77824D01*
X293877Y79033D01*
X301499Y79033D01*
X301499Y71411D01*
X300290Y71804D01*
G37*
%LPD*%
%LPC*%
G36*
X206617Y164847D02*
X206617Y164847D01*
X206617Y169341D01*
X212160Y169341D01*
X212806Y169168D01*
X213385Y168833D01*
X213858Y168360D01*
X214193Y167781D01*
X214366Y167135D01*
X214366Y164847D01*
X206617Y164847D01*
G37*
%LPD*%
%LPC*%
G36*
X206617Y154259D02*
X206617Y154259D01*
X206617Y158753D01*
X214366Y158753D01*
X214366Y156465D01*
X214193Y155819D01*
X213858Y155240D01*
X213385Y154767D01*
X212806Y154432D01*
X212160Y154259D01*
X206617Y154259D01*
G37*
%LPD*%
%LPC*%
G36*
X189347Y231647D02*
X189347Y231647D01*
X189347Y236141D01*
X192135Y236141D01*
X192781Y235968D01*
X193360Y235633D01*
X193833Y235160D01*
X194168Y234581D01*
X194341Y233935D01*
X194341Y231647D01*
X189347Y231647D01*
G37*
%LPD*%
%LPC*%
G36*
X189347Y221059D02*
X189347Y221059D01*
X189347Y225553D01*
X194341Y225553D01*
X194341Y223265D01*
X194168Y222619D01*
X193833Y222040D01*
X193360Y221567D01*
X192781Y221232D01*
X192135Y221059D01*
X189347Y221059D01*
G37*
%LPD*%
D10*
X169300Y228600D03*
X186300Y228600D03*
D11*
X96266Y82042D03*
D12*
X96266Y107042D03*
X96266Y132042D03*
D11*
X304546Y132080D03*
D12*
X304546Y107080D03*
X304546Y82080D03*
D13*
X203570Y161800D03*
X152030Y161800D03*
X152030Y193800D03*
X203570Y193800D03*
D14*
X169300Y211070D02*
X169300Y228600D01*
X169300Y211070D02*
X152030Y193800D01*
X96266Y138036D01*
X96266Y132042D01*
D15*
X186690Y176920D02*
X203570Y193800D01*
X186690Y176920D02*
X186690Y107950D01*
D16*
X186690Y107950D03*
D15*
X152030Y161800D02*
X97272Y107042D01*
X96266Y107042D01*
M02*
